<svg width="120" height="120" viewBox="0 0 120 120" xmlns="http://www.w3.org/2000/svg">
  <defs>
    <linearGradient id="debtGradient" x1="0%" y1="0%" x2="100%" y2="100%">
      <stop offset="0%" style="stop-color:#FF6B6B;stop-opacity:1" />
      <stop offset="100%" style="stop-color:#FF8E53;stop-opacity:1" />
    </linearGradient>
  </defs>
  <rect width="120" height="120" rx="24" fill="url(#debtGradient)"/>
  <g transform="translate(30, 30)">
    <!-- Calculator/Money icon -->
    <rect x="10" y="5" width="40" height="50" rx="4" fill="white" opacity="0.9"/>
    <rect x="15" y="12" width="8" height="6" rx="1" fill="#FF6B6B"/>
    <rect x="27" y="12" width="8" height="6" rx="1" fill="#FF6B6B"/>
    <rect x="39" y="12" width="8" height="6" rx="1" fill="#FF6B6B"/>
    <rect x="15" y="22" width="8" height="6" rx="1" fill="#FF6B6B"/>
    <rect x="27" y="22" width="8" height="6" rx="1" fill="#FF6B6B"/>
    <rect x="39" y="22" width="8" height="6" rx="1" fill="#FF6B6B"/>
    <rect x="15" y="32" width="8" height="6" rx="1" fill="#FF6B6B"/>
    <rect x="27" y="32" width="8" height="6" rx="1" fill="#FF6B6B"/>
    <rect x="39" y="32" width="8" height="6" rx="1" fill="#FF6B6B"/>
    <rect x="15" y="42" width="20" height="6" rx="1" fill="#FF6B6B"/>
    <rect x="39" y="42" width="8" height="6" rx="1" fill="#FF6B6B"/>
    <!-- Dollar sign -->
    <text x="30" y="8" font-family="Arial, sans-serif" font-size="8" font-weight="bold" fill="white" text-anchor="middle">$</text>
  </g>
</svg>