<svg width="120" height="120" viewBox="0 0 120 120" xmlns="http://www.w3.org/2000/svg">
  <defs>
    <linearGradient id="kasGradient" x1="0%" y1="0%" x2="100%" y2="100%">
      <stop offset="0%" style="stop-color:#4ECDC4;stop-opacity:1" />
      <stop offset="100%" style="stop-color:#44A08D;stop-opacity:1" />
    </linearGradient>
  </defs>
  <rect width="120" height="120" rx="24" fill="url(#kasGradient)"/>
  <g transform="translate(25, 20)">
    <!-- Calculator body -->
    <rect x="5" y="5" width="60" height="80" rx="6" fill="white" opacity="0.95"/>
    <!-- Screen -->
    <rect x="10" y="10" width="50" height="15" rx="2" fill="#2C3E50"/>
    <text x="55" y="21" font-family="monospace" font-size="10" fill="#4ECDC4" text-anchor="end">123.45</text>
    <!-- Buttons -->
    <rect x="10" y="30" width="12" height="10" rx="2" fill="#4ECDC4"/>
    <rect x="26" y="30" width="12" height="10" rx="2" fill="#4ECDC4"/>
    <rect x="42" y="30" width="12" height="10" rx="2" fill="#4ECDC4"/>
    <rect x="58" y="30" width="7" height="10" rx="2" fill="#E74C3C"/>
    
    <rect x="10" y="44" width="12" height="10" rx="2" fill="#4ECDC4"/>
    <rect x="26" y="44" width="12" height="10" rx="2" fill="#4ECDC4"/>
    <rect x="42" y="44" width="12" height="10" rx="2" fill="#4ECDC4"/>
    <rect x="58" y="44" width="7" height="10" rx="2" fill="#E74C3C"/>
    
    <rect x="10" y="58" width="12" height="10" rx="2" fill="#4ECDC4"/>
    <rect x="26" y="58" width="12" height="10" rx="2" fill="#4ECDC4"/>
    <rect x="42" y="58" width="12" height="10" rx="2" fill="#4ECDC4"/>
    <rect x="58" y="58" width="7" height="10" rx="2" fill="#E74C3C"/>
    
    <rect x="10" y="72" width="28" height="10" rx="2" fill="#27AE60"/>
    <rect x="42" y="72" width="12" height="10" rx="2" fill="#4ECDC4"/>
    <rect x="58" y="72" width="7" height="10" rx="2" fill="#E74C3C"/>
    
    <!-- Button labels -->
    <text x="16" y="37" font-family="Arial" font-size="6" fill="white" text-anchor="middle">7</text>
    <text x="32" y="37" font-family="Arial" font-size="6" fill="white" text-anchor="middle">8</text>
    <text x="48" y="37" font-family="Arial" font-size="6" fill="white" text-anchor="middle">9</text>
    <text x="61.5" y="37" font-family="Arial" font-size="6" fill="white" text-anchor="middle">รท</text>
  </g>
</svg>